DataType=double
version=3
OpenSimVersion=4.5-2023-11-26-efcdfd3eb
endheader
time	EMG01_right_gast_med	EMG02_right_glut_max	EMG03_left_gast_med	EMG04_left_glut_max	EMG05_right_glut_med	EMG06_right_bic_fem	EMG07_right_rect_fem	EMG08_right_vast_lat	EMG09_right_vast_med	EMG10_right_tens_fasc_lat	EMG11_left_glut_med	EMG12_left_bic_fem	EMG13_left_rect_fem	EMG14_left_vast_lat	EMG15_left_vast_med	EMG16_left_tens_fasc_lat
0	0.4503364673880774	0.8866583336887888	1.739211625081072	3.28003537047292	-2.625600089055744	-0.1670828698363556	-0.4692148018087614	-1.511714484556103	-2.148088632978323	-0.3355082047696418	0.1860665238651031	-0.07770265272243404	0.06581981122641864	0.1588363839392335	0.9709258013167087	4.746278405140727
0.01	1.573483459822373	3.847515158472448	6.290376865557103	5.140111336133465	-1.542081368438747	1.108260893737517	-0.1420164178360807	-1.086908356570178	-2.012525821663064	1.237195828789611	1.265618095501492	0.6454485093166392	0.5334951474927702	1.201681078900637	2.430385871142406	10.24830478825026
0.02	2.665947825257914	6.710254524587953	11.05926637346315	6.932316017211901	-0.4326234126673371	2.473025735855943	0.1835408800162549	-0.6479461781927831	-1.865749181199651	2.779509399497785	2.349297303589818	1.373645561621823	1.008471284638784	2.232335981699462	3.899226166179939	15.51232672439149
0.03	3.718303301206213	9.457133976492958	16.01361732535445	8.638266746276365	0.7023889669478104	3.924843444466297	0.5067917256333863	-0.1944733530293868	-1.703612936674852	4.275915331574835	3.426053731885821	2.103192838395206	1.488465427445783	3.243589754101915	5.3624950336703	20.50008602762454
0.04	4.721584532871363	12.07189327282118	21.11927276904717	10.24055511279175	1.863651266582811	5.460485631433893	0.8272030262136582	0.2740147639252913	-1.521222953136699	5.712032807207621	4.485034314081922	2.830345624454686	1.971109463453649	4.228518140413096	6.805557588413556	25.17583698874697
0.05	5.667437045003077	14.54002906245173	26.34065690864835	11.72307088001408	3.053030720288002	7.075854196843764	1.144384048654302	0.7581727951674664	-1.312935070978885	7.074953303652037	5.515760195012982	3.551345933885106	2.453971067496953	5.180591844488385	8.214379294343507	29.50688171805208
0.06	6.548256566325986	16.84903128165015	31.64122019682036	13.07131143112405	4.273604447331049	8.765981250193025	1.458090252605894	1.258794466094905	-1.072374645817286	8.35352652733576	6.508292147547451	4.262456934339223	2.93457402079575	6.093774885185598	9.575782548034168	33.464067047357
0.07000000000000001	7.357314848331172	18.98857525264815	36.98384501740814	14.27267160443405	5.529641742565702	10.52503950378269	1.768220853439582	1.776790571394335	-0.7924787305126644	9.538586644244043	7.453381486386907	4.959995489047369	3.410417678617074	6.962611214396472	10.87766959514355	37.02223299926946
0.08	8.088869533864299	20.95066539431485	42.33120991482242	15.31670932762191	6.826531369777929	12.34636426882479	2.074810537713859	2.313156195253673	-0.4655615633571691	10.62311321883077	8.34260418665443	5.640362304369783	3.8789956736553	7.782297801126735	12.1092077164327	40.1606040173696
0.09	8.738256090542588	22.72972828354053	47.64611534285439	16.19538274758702	8.170657072221593	14.22248815119715	2.378016013044188	2.868928215855862	-0.08340329656675269	11.60232530853838	9.168476375581374	6.300069199393935	4.337814004398168	8.548742829962478	13.26097501047098	42.86311561035439
0.1	9.301960352137035	24.32265466544625	52.89177653998875	16.90325473778747	9.56922602462484	16.14518937013961	2.678098209851369	3.445134605193821	0.3626387548012719	12.47371049298831	9.924549524444329	6.935763102988865	4.784408668407993	9.258608153250885	14.32506703648344	45.11867096703541
0.11	9.777670770535675	25.72879173067274	58.03209026556461	17.4376608828923	11.0300559160102	18.10555431688508	2.975401011573707	4.042737380472133	0.881497631488364	13.23699301905023	10.60548376974817	7.544246579964509	5.216362986148122	9.909335635659163	15.29516596512768	46.92132436502943
0.12	10.16431007414446	26.94988822384261	63.03188219759677	17.79883739100244	12.5613270378327	20.09405452337675	3.270327414815887	4.662571261531581	1.482244796964447	13.89404678122956	11.20709811343758	8.122495032709166	5.631324747884351	10.49915749457475	16.16657470817161	48.27039024636014
0.13	10.46204672861336	27.98999567703837	67.8571408266689	17.99000593370426	14.17130632307387	22.1006376389666	3.56331403529146	5.305280165567337	2.173920983950502	14.44875977412196	11.72639683894827	8.667671161302422	6.027023327937272	11.02709117017787	16.93621888944358	49.17047817211174
0.14	10.67228739831423	28.85532953254107	72.47524191389367	18.01741311817137	15.86805079848409	24.11483133821821	3.854804876631559	5.971253677030772	2.965352485923009	14.90685718419928	12.16157214695305	9.177137615746597	6.401286938827297	11.49291966846659	17.60261970116791	49.63145467280368
0.15	10.79765233921299	29.55409427817058	76.85516536619274	17.89032305669768	17.65909834777109	26.12585830556092	4.145225247901389	6.66056558882107	3.864955949540656	15.27569051792523	12.51198365050395	9.648468885437094	6.752060192186479	11.89715868870459	18.16584077389813	49.66833375042018
0.16	10.84193613361988	30.09627691282224	80.96770388023644	17.62096234277	19.55115395447123	28.12275958362561	4.434956643969806	7.372916517095338	4.880535026234385	15.56400011641971	12.77811609997828	10.07946333991915	7.07742204583623	12.24101212490311	18.62741212238113	49.30109864354919
0.17	10.81005639941305	30.49341312723617	84.78566010409212	17.22441771224373	21.54977963512286	30.09452270753367	4.724313317770447	8.107582461087491	6.019072470373145	15.78165817281215	12.9615175970454	10.46815606847838	7.375604056816019	12.52631770191913	18.9902339766204	48.55445839894007
0.18	10.7079931703214	30.75833074434841	88.28402712086272	16.71848758202663	23.65909611356284	32.03021025619062	5.013521212054568	8.863371042243301	7.286521493347976	15.93939907700521	13.06472133562281	10.81283287795208	7.645008690501447	12.75548461566789	19.25846301146982	47.45754372249109
0.19	10.54272157711117	30.90487536323671	91.44014706275529	16.12348926452737	25.88150400415319	33.91908378488424	5.302699880534404	9.638587014287271	8.687600444132597	16.04854363654273	13.09115423609877	11.11204556415463	7.88422730934182	12.93142513229611	19.43738339788251	46.0435473177471
0.2	10.32214022389332	30.94762372081984	94.2338452766799	15.46202398078705	28.21743189534163	35.75071763172753	5.591847982659043	10.43100844904334	10.22559518931623	16.12072345331823	13.04503569712649	11.36462839845576	8.092057390671146	13.05748211725155	19.53326528241953	44.3493142707898
0.21	10.05499727027381	30.90159084095192	96.64754155465548	14.75870208479722	30.66511822197599	37.51509694374563	5.880832862710725	11.2378747440803	11.90217387961841	16.16761143042583	12.9312693428856	11.56971567239218	8.267518498785146	13.1373543322765	19.55321352928497	42.41488807366851
0.22	9.750815799774031	30.78193740597993	98.66634324438434	14.03983130238744	33.22043316626626	39.20269468607329	6.169384624759283	12.05588727960484	13.71721904863156	16.20066397971309	12.75533032983941	11.72676008606009	8.409866569227763	13.17502106033725	19.50500956046014	40.28301779677957
0.23	9.41981967246568	30.60368387391858	100.278126105532	13.33307125742862	35.87674608215103	40.80452379676341	6.457094989547458	12.88122319947955	15.668682093543	16.23087992869099	12.5231505384225	11.83555167223457	8.51860613704428	13.17466729275196	19.39694885564347	37.99863182820714
0.24	9.072860756971684	30.38143768296672	101.4736077700241	12.66705809856876	38.62484318286639	42.31216336398665	6.743421055160489	13.70956241793876	17.75246506830775	16.26858036887105	12.24100373467127	11.89623674847604	8.593500210281976	13.14061043427296	19.23767626319065	35.60828359013456
0.25	8.721348198429041	30.1291394197998	102.2464166327437	12.07100364146738	41.45289950661606	43.71776132736135	7.027693880740756	14.53612756624728	19.96233439241892	16.32321281576351	11.9153925026848	11.90933606367712	8.634577541320473	13.07722929021788	19.03602091417098	33.15957488016308
0.26	8.377180174381596	29.85983301051062	102.5931568782883	11.5742739681238	44.34650839993778	45.01401947740825	7.30913160002434	15.35573621327393	22.28987060201462	16.40318216374113	11.55293848763197	11.87576087136877	8.642137119026627	12.9888959899367	18.80083237242191	30.70056303363556
0.27	8.052678398741262	29.58546386439987	102.5134686593064	11.20595274515988	47.28877075166019	46.19416828112531	7.586856578895167	16.16286437198053	24.7244576781115	16.51571007650991	11.16027734749207	11.79682519773582	8.616749803505805	12.87991142083422	18.54081971137131	28.27915884612187
0.28	7.760525450856112	29.31670767015257	102.0100812614015	10.99439472327697	50.26044481157319	47.25193914007696	7.859915958368455	16.95172011493932	27.25331477542332	16.66672366339641	10.74395978274886	11.67425225938845	8.559257078174076	12.75444461387049	18.26439536609691	25.94252288415048
0.29	7.513704824804992	29.06283140590738	101.0888562640671	10.96677514739056	53.24015564408852	48.18154074784528	8.127304749799073	17.71632610458401	29.86157233291541	16.86077356144486	10.310359983177	11.51017302649589	8.470766812257386	12.61647629954313	17.97952574109925	23.7364681407366
0.3	7.325443394744476	28.83158713017823	99.75881712419503	11.1486411491126	56.20466135415634	48.97764497786044	8.3879904641009	18.45060991767538	32.5323935837233	17.10098093545044	9.865592710509352	11.3071153655214	8.352645711719898	12.46974660689118	17.693590604773	21.7048768029191
0.31	7.20915576901111	28.62913827174895	98.03216116497251	11.56347145259782	59.12917159193325	49.63538657983366	8.640938094780854	19.14850102467439	35.24714142950974	17.38901250540253	9.415440026664164	11.06798290008602	8.206507896474232	12.31770673215837	17.41325326824438	19.88913836436178
0.32	7.178389762716337	28.46001750662875	95.9242493690905	12.2322508403855	61.98771281554748	50.1503799772677	8.885134200509654	19.80403302860634	37.98558953779237	17.72508253163078	8.965288419003976	10.79602356499877	8.034198924855769	12.16347445527757	17.14434347358157	18.32761578436204
0.33	7.246771949226351	28.32711500739412	93.45356835048047	13.17306592100758	64.75353436277896	50.51875558406919	9.119608888067102	20.41144928736058	40.72617540560226	18.10798065481503	8.520076809008964	10.49478873421161	7.837774705878434	12.00979361019982	16.89175486949176	17.05514605976764
0.34	7.427951947547986	28.23169589121498	90.64165750617603	14.40072892442573	67.39954911739467	50.7372171096916	9.343454673442594	20.96530947381045	43.44629206000892	18.53512446832004	8.084255701435222	10.1680846518146	7.619475135608925	11.85899789311186	16.65935894441345	16.10258137342158
0.35	7.735543775620054	28.17344590537676	87.51299322141006	15.92643646136957	69.89880180184697	50.80312000855759	9.555841475294965	21.46059410634409	46.12261399763969	19.00263557936263	7.661757548195743	9.819918471597635	7.381692899715335	11.71297964404307	16.44993726926859	15.49637673803709
0.36	8.183062277016957	28.15054444435745	84.09482192213993	17.75747026789617	72.22495634656399	50.71456942000667	9.756027339820315	21.89280371507381	48.73145172684087	19.50543766627365	7.255978239972039	9.454441405175253	7.126938509397478	11.57316450547861	16.26513383432976	15.25822967502143
